<svg xmlns="http://www.w3.org/2000/svg" width="120" height="120" viewBox="0 0 120 120">
	<defs>
		<linearGradient id="facebook-a" x1="50%" x2="50%" y1="0%" y2="100%">
			<stop offset="0%" stop-color="#547ECD"></stop>
			<stop offset="100%" stop-color="#2B4282"></stop>
		</linearGradient>
	</defs>
	<path fill="url(#facebook-a)" fill-rule="evenodd" d="M85.3910204,120 L85.3910204,71.495 L98.3583673,71.495 L99.5314286,54.95 L85.0506122,54.95 C85.0506122,54.95 85.0897959,47.585 85.0506122,45.45 C85.0506122,40.2175 90.3991837,40.515 90.7126531,40.515 C93.2644898,40.515 98.2040816,40.5225 99.475102,40.515 L99.475102,23.9 L99.4604082,23.9 L99.4604082,23.9025 C99.4604082,23.9025 90.3820408,23.9025 84.36,23.9025 C75.3918367,23.9025 65.4244898,27.74 65.4244898,40.99 C65.4710204,45.6025 65.4244898,50.0225 65.4244898,54.9975 L55.0555102,54.9975 L55.0555102,71.8175 L65.7477551,71.8175 L65.7477551,120 L28,120 C12.536027,120 1.8937905e-15,107.463973 0,92 L0,28 C-1.8937905e-15,12.536027 12.536027,2.84068575e-15 28,0 L92,0 C107.463973,-2.84068575e-15 120,12.536027 120,28 L120,92 C120,107.463973 107.463973,120 92,120 L85.3910204,120 Z"></path>
</svg>
