<svg xmlns="http://www.w3.org/2000/svg" width="120" height="120" viewBox="0 0 120 120">
	<defs>
		<linearGradient id="twitter-a" x1="50%" x2="50%" y1="0%" y2="100%">
			<stop offset="0%" stop-color="#49CEEE"></stop>
			<stop offset="100%" stop-color="#2AABE2"></stop>
		</linearGradient>
	</defs>
	<path fill="url(#twitter-a)" fill-rule="evenodd" d="M28,0 L92,0 C107.463973,-2.84068575e-15 120,12.536027 120,28 L120,92 C120,107.463973 107.463973,120 92,120 L28,120 C12.536027,120 1.8937905e-15,107.463973 0,92 L0,28 C-1.8937905e-15,12.536027 12.536027,2.84068575e-15 28,0 Z M76.4954876,30.962253 C68.1702381,31.1732071 61.487885,37.9906854 61.487885,46.3682373 C61.487885,47.5742271 61.6225061,48.7499362 61.8862665,49.8796862 C49.079309,49.2362913 37.7241924,43.1025392 30.1238734,33.7793798 C28.7974329,36.0541395 28.0352158,38.7040698 28.0352158,41.5307468 C28.0352158,46.876126 30.7582508,51.5902939 34.8930699,54.3529421 C32.3682692,54.2721366 29.9880939,53.577789 27.9100102,52.4236371 C27.9088446,52.4876677 27.9100102,52.5572711 27.9100102,52.6228278 C27.9100102,60.0874585 33.2212968,66.309268 40.271221,67.7271803 C38.9783303,68.0778472 37.6191398,68.267841 36.2134202,68.267841 C35.2193567,68.267841 34.2516242,68.1704065 33.310926,67.9889739 C35.2731323,74.1103931 40.9619336,78.5705638 47.7038828,78.6940557 C42.4301614,82.8273496 35.7908735,85.2901162 28.5701853,85.2901162 C27.3276069,85.2901162 26.0996767,85.2171673 24.8936926,85.0738519 C31.7149225,89.4480396 39.8109178,92 48.5120283,92 C76.8565661,92 92.3567651,68.5183252 92.3567651,48.1552631 C92.3567651,47.4874737 92.3401706,46.8193582 92.3112358,46.1576642 C95.3208733,43.9896271 97.9356405,41.2747864 100,38.1843417 C97.2388797,39.4116774 94.2681225,40.2382859 91.1502381,40.6087781 C94.3336792,38.7029789 96.7773199,35.6846053 97.9284159,32.0834126 C94.9507982,33.8504693 91.6508494,35.1360115 88.1396117,35.8281993 C85.3297058,32.8338105 81.3259939,30.962253 76.8938692,30.962253 C76.7609163,30.962253 76.6276338,30.9589046 76.4954876,30.962253 Z"></path>
</svg>
